# xmcd
#
# Track frame offsets:
#	150
#	19092
#	39377
#	60217
#	77225
#	102317
#	121845
#	139740
#	161605
#	182782
#	202622
#	221612
#	241532
#	261722
#	282680
#	305625
#
# Disc length: 4397 seconds
#
# Revision: 1
# Processed by: cddbd v1.5PL3 Copyright (c) Steve Scherf et al.
# Submitted via: CDex 1.50Beta5
#
DISCID=de112b10
DTITLE=フェイ・ウォン - ダブルベスト/’89〜’97 32精選〜 Disc 2
DYEAR=1998
DGENRE=Pop
TTITLE0=冷戦
TTITLE1=悔やまぬ心で
TTITLE2=季節風
TTITLE3=流れるは飛ぶに非ず
TTITLE4=ミス・ユー・ナイト&デイ
TTITLE5=傷つきやすい女
TTITLE6=浪漫風景
TTITLE7=あなたがいたから
TTITLE8=待っているわ
TTITLE9=静かな夜のオルゴール
TTITLE10=強く抱きしめて
TTITLE11=エブリシング
TTITLE12=パリの塔
TTITLE13=言い訳
TTITLE14=あの日
TTITLE15=終電
EXTD=
EXTT0=
EXTT1=
EXTT2=
EXTT3=
EXTT4=
EXTT5=
EXTT6=
EXTT7=
EXTT8=
EXTT9=
EXTT10=
EXTT11=
EXTT12=
EXTT13=
EXTT14=
EXTT15=
PLAYORDER=
